<svg xmlns="http://www.w3.org/2000/svg" xmlns:xlink="http://www.w3.org/1999/xlink" width="640" height="205" preserveAspectRatio="xMidYMid meet" version="1.1" viewBox="0 0 640 205"><defs><path id="a21BPQoPwf" d="M278.97 205.13L278.97 164.1L361.03 164.1L361.03 0L196.92 0L196.92 205.13L278.97 205.13ZM320 41.03L320 123.08L278.97 123.08L278.97 41.03L320 41.03ZM393.85 164.1L475.9 164.1L475.9 41.03L516.92 41.03L516.92 164.1L557.95 164.1L557.95 41.03L598.97 41.03L598.97 164.1L640 164.1L640 0L393.85 0L393.85 164.1ZM82.05 164.1L82.05 41.03L123.08 41.03L123.08 164.1L164.1 164.1L164.1 0L0 0L0 164.1L82.05 164.1Z"/></defs><g><g><g><use fill="#fff" fill-opacity="1" opacity="1" xlink:href="#a21BPQoPwf"/><g><use fill-opacity="0" stroke="#000" stroke-opacity="0" stroke-width="1" opacity="1" xlink:href="#a21BPQoPwf"/></g></g></g></g></svg>